<svg width="240" height="8" viewBox="0 0 240 8" fill="none" xmlns="http://www.w3.org/2000/svg">
<path fill-rule="evenodd" clip-rule="evenodd" d="M5.51707 6.51301C10.6038 6.02468 23.9718 6.00026 60.2611 5.95143C116.928 5.87818 161.902 5.34101 174.401 4.55968C175.394 4.48643 95.961 3.94926 87.8036 4.33993C75.0869 4.97476 14.3567 4.43759 2.13625 3.70509C-1.33759 3.50976 -0.0348828 2.82609 2.22931 2.67959C5.76517 2.43542 15.2562 2.45984 41.2791 2.50867C59.5787 2.53309 205.17 1.9715 221.081 0.970417C230.014 0.408833 235.442 -0.103917 237.923 0.0181665C240.001 0.115833 240.032 0.408833 238.233 1.21458C237.023 1.75175 238.388 2.06917 239.257 2.21567C240.59 2.45984 240.032 3.29001 238.357 3.94926C236.093 4.85268 232.185 4.82826 234.046 3.92484C234.449 3.72951 234.542 3.24117 233.115 3.33884C228.959 3.63184 199.587 5.63401 191.615 5.97584C106.507 9.68718 23.4445 6.97693 5.85822 7.88035C-0.376077 8.22219 2.47747 6.80601 5.51707 6.51301Z" fill="#25B4F8"/>
</svg>
