<svg width="15" height="18" viewBox="0 0 15 18" fill="none" xmlns="http://www.w3.org/2000/svg">
<mask id="mask0_2165_261" style="mask-type:luminance" maskUnits="userSpaceOnUse" x="0" y="0" width="15" height="18">
<path fill-rule="evenodd" clip-rule="evenodd" d="M0.333496 0.667969H14.4725V17.631H0.333496V0.667969Z" fill="white"/>
</mask>
<g mask="url(#mask0_2165_261)">
<path fill-rule="evenodd" clip-rule="evenodd" d="M7.40301 1.91797C6.69634 1.91797 2.23801 3.48797 1.72384 3.91714C1.57217 4.06964 1.56634 4.33464 1.59884 6.1088C1.61384 6.9638 1.63467 8.12547 1.63467 9.7338C1.63467 14.068 6.40301 15.9921 7.40217 16.3463C8.40051 15.9905 13.1713 14.0555 13.1713 9.7338C13.1713 8.1238 13.1922 6.9613 13.208 6.1063C13.2397 4.3338 13.2338 4.0688 13.073 3.9088C12.5688 3.48797 8.10968 1.91797 7.40301 1.91797ZM7.40301 17.6313C7.34218 17.6313 7.28134 17.623 7.22217 17.6046C6.94301 17.5205 0.384675 15.4688 0.384675 9.7338C0.384675 8.1363 0.363842 6.98047 0.348842 6.13214C0.310508 4.01297 0.302175 3.5713 0.849675 3.02464C1.50384 2.3688 6.45801 0.667969 7.40301 0.667969C8.34717 0.667969 13.3013 2.3688 13.9572 3.02464C14.5038 3.5713 14.4955 4.01297 14.4572 6.12964C14.4422 6.97797 14.4213 8.1338 14.4213 9.7338C14.4213 15.4688 7.86301 17.5205 7.58384 17.6046C7.52467 17.623 7.46384 17.6313 7.40301 17.6313Z" fill="#1376F8"/>
</g>
<path fill-rule="evenodd" clip-rule="evenodd" d="M6.81436 11.1014C6.64852 11.1014 6.48936 11.0355 6.37186 10.918L4.79519 9.33969C4.55186 9.09552 4.55186 8.69885 4.79602 8.45552C5.03936 8.21135 5.43602 8.21135 5.68019 8.45552L6.81436 9.59135L9.62102 6.78469C9.86519 6.54052 10.2602 6.54052 10.5044 6.78469C10.7485 7.02885 10.7485 7.42469 10.5044 7.66885L7.25602 10.918C7.13936 11.0355 6.98019 11.1014 6.81436 11.1014Z" fill="#1376F8"/>
</svg>
