<svg width="20" height="20" viewBox="0 0 20 20" shape-rendering="geometricPrecision" xmlns="http://www.w3.org/2000/svg" xmlns:xlink="http://www.w3.org/1999/xlink"><g><path d="M0.604 7.46C1.299 8.323 2.564 8.5 4.25 8.5C5.936 8.5 7.201 8.323 7.896 7.46C8.5 6.711 8.5 5.688 8.5 4.25C8.5 1.38 8.319 0 4.25 0C0.181 0 0 1.38 0 4.25L0.75 4.25L0 4.275C0 5.689 0 6.711 0.604 7.46Z" shape-rendering="geometricPrecision" fill="#FFFFFF" style="fill-rule:evenodd" transform="matrix(1 0 0 1 0 0.0001220703125)"></path><path d="M0.604 7.46C1.299 8.323 2.564 8.5 4.25 8.5C5.936 8.5 7.201 8.323 7.896 7.46C8.5 6.711 8.5 5.688 8.5 4.25C8.5 1.38 8.319 0 4.25 0C0.181 0 0 1.38 0 4.25L0.75 4.25L0 4.275C0 5.689 0 6.711 0.604 7.46Z" shape-rendering="geometricPrecision" fill="#FFFFFF" style="fill-rule:evenodd" transform="matrix(1 0 0 1 11 0.0001220703125)"></path><path d="M0.604 7.46C1.299 8.323 2.564 8.5 4.25 8.5C5.936 8.5 7.201 8.323 7.896 7.46C8.5 6.711 8.5 5.688 8.5 4.25C8.5 1.38 8.319 0 4.25 0C0.181 0 0 1.38 0 4.25L0.75 4.25L0 4.275C0 5.689 0 6.711 0.604 7.46Z" shape-rendering="geometricPrecision" fill="#FFFFFF" style="fill-rule:evenodd" transform="matrix(1 0 0 1 0 11.0001220703125)"></path><path d="M0.604 7.46C1.299 8.323 2.564 8.5 4.25 8.5C5.936 8.5 7.201 8.323 7.896 7.46C8.5 6.711 8.5 5.688 8.5 4.25C8.5 1.38 8.319 0 4.25 0C0.181 0 0 1.38 0 4.25L0.75 4.25L0 4.275C0 5.689 0 6.711 0.604 7.46Z" shape-rendering="geometricPrecision" fill="#FFFFFF" style="fill-rule:evenodd" transform="matrix(1 0 0 1 11 11.0001220703125)"></path></g></svg>