<svg width="27" height="27" viewBox="0 0 27 27" shape-rendering="geometricPrecision" xmlns="http://www.w3.org/2000/svg" xmlns:xlink="http://www.w3.org/1999/xlink"><g><g><g filter="url(#filter-5UhQ-9k2)"><defs><filter id="filter-5UhQ-9k2" filterUnits="userSpaceOnUse" color-interpolation-filters="sRGB"><feFlood flood-opacity="0" result="BackgroundImageFix"></feFlood><feBlend mode="normal" in="SourceGraphic" in2="BackgroundImageFix" result="shape"></feBlend><feGaussianBlur stdDeviation="16.12400245666504" result="effect_Blur"></feGaussianBlur></filter></defs><path d="M16.124 8.062C16.124 12.5145 12.5145 16.124 8.062 16.124C3.60948 16.124 0 12.5145 0 8.062C0 3.60948 3.60948 0 8.062 0C12.5145 0 16.124 3.60948 16.124 8.062Z" shape-rendering="geometricPrecision" fill="#25B4F8" style="fill-rule:evenodd" transform="matrix(0.8997395671619268 0.43642721189594547 -0.43642721189594547 0.8997395671619268 9.35060803989063 2.0349169689707196)"></path></g><path d="M25.7984 12.8992C25.7984 20.0232 20.0232 25.7984 12.8992 25.7984C5.77517 25.7984 0 20.0232 0 12.8992C0 5.77517 5.77517 0 12.8992 0C20.0232 0 25.7984 5.77517 25.7984 12.8992Z" shape-rendering="geometricPrecision" fill="#25B4F8" style="fill-rule:evenodd" transform="matrix(0.8997395671619268 0.43642721189594547 -0.43642721189594547 0.8997395671619268 7.259055196480858 -3.998286189409555)"></path></g><path d="M7.53207 -0.114751C6.40126 -0.698792 5.37496 -0.42038 4.65784 -0.0271015C3.9434 0.364664 3.14127 0.581317 2.32674 0.602518C1.50914 0.623762 0.482232 0.899912 -0.200822 1.97387C-1.495 4.00875 0.645658 6.44113 1.19239 6.81202C1.73912 7.18292 1.92657 7.82369 2.5773 9.0596C3.22803 10.2955 3.94113 11.4425 4.64218 11.0515C5.34323 10.6605 5.29806 9.69321 5.15602 8.42073C5.14627 8.33321 5.13844 8.25076 5.13234 8.17294C5.0907 7.63917 5.81238 7.44425 6.04513 7.9264C6.07903 7.99665 6.11384 8.07188 6.14948 8.1524C6.66741 9.32336 7.11537 10.1819 7.91795 10.1667C8.72052 10.1516 8.75918 8.80157 8.69919 7.4061C8.63919 6.01063 8.47854 5.36263 8.7642 4.76691C9.04985 4.17119 9.6748 0.991837 7.53207 -0.114751ZM3.2205 1.08774C3.24139 1.24772 3.12893 1.39445 2.96925 1.41598C2.91216 1.42406 1.65005 1.61978 1.6671 3.05075C1.66871 3.18718 1.57677 3.30295 1.45085 3.33695C1.4275 3.34326 1.40303 3.34678 1.37775 3.34705C1.21605 3.34899 1.08339 3.21945 1.08146 3.05775C1.06277 1.48976 2.25768 0.918594 2.89209 0.835389C3.05246 0.814399 3.19946 0.927389 3.2205 1.08774Z" shape-rendering="geometricPrecision" fill="#FFFFFF" style="fill-rule:evenodd" transform="matrix(0.9824131037142615 0.18672036217432655 -0.18672036217432655 0.9824131037142615 9.293235390985501 6.96265119167947)"></path></g></svg>