<svg width="48" height="48" viewBox="0 0 48 48" fill="none" xmlns="http://www.w3.org/2000/svg">
<path d="M41.2973 4.25077C40.1423 3.21877 38.8245 2.37877 37.3875 1.79827C35.9153 1.20352 34.3418 0.887016 32.7578 0.810516C32.4758 0.797016 32.193 0.791016 31.911 0.791016C30.4328 0.794766 28.9148 1.17877 27.519 1.90252C25.317 3.04477 22.6898 3.04402 20.4885 1.90252C19.0928 1.17877 17.574 0.794766 16.0965 0.791016C14.5058 0.791016 12.9158 1.00852 11.403 1.51102C9.93302 1.99927 8.55752 2.75002 7.34552 3.71377C7.12952 3.88552 6.91727 4.06477 6.71102 4.25002C3.65027 6.99277 2.01677 11.0923 2.22902 15.5C2.43377 19.4893 3.75152 24.8225 8.73377 27.9808C8.70527 29.09 8.68277 30.2315 8.76077 31.3858C8.81402 32.0878 8.87477 32.8835 8.99927 33.674C9.67427 38.0405 11.0063 42.9223 15.7658 46.0205C16.908 46.7638 18.7553 47.8408 20.004 46.6693C20.8755 45.851 21.0938 44.3758 21.1553 43.2395C21.1575 43.1863 21.4463 38.2963 24.0383 33.4633C25.0853 35.1905 26.7233 38.6255 27.303 43.889C27.4658 45.3665 28.1025 47.2093 29.8935 47.2093C30.8258 47.2093 31.6703 46.6933 32.0063 46.4885C34.8248 44.7688 36.7913 42.4303 38.0183 39.341C39.483 35.6675 39.627 32.0945 39.3383 27.9463C44.2905 24.77 45.5828 19.463 45.7688 15.4918C45.9923 11.0855 44.3618 6.98827 41.2973 4.25077ZM29.7435 23.552C28.4655 22.6528 26.6858 21.6508 24.6435 20.9045C24.1965 20.741 23.7968 20.627 23.358 20.9045C21.321 21.6485 19.545 22.6468 18.2685 23.5445C18.0465 20.615 17.1885 17.6593 16.392 15.5143L21.714 16.8958C23.3655 17.3255 25.1093 17.315 26.7548 16.8658L31.5908 15.506C30.813 17.6743 29.9625 20.6278 29.7435 23.552ZM24.7928 30.6343C24.558 30.374 24.219 30.2383 23.8673 30.266C23.5185 30.2938 23.202 30.4828 23.0123 30.7775C19.2968 36.5315 18.924 42.854 18.9105 43.1188C18.9098 43.127 18.9083 43.1345 18.9083 43.1428C15.9668 36.08 17.796 28.0325 18.1845 26.519C18.612 26.0038 20.9198 24.218 24.0008 23.0653C27.1283 24.2353 29.4615 26.06 29.8373 26.543C30.2835 28.0123 32.5268 36.221 29.5035 43.361C28.4963 34.8418 24.9458 30.8023 24.7928 30.6343ZM16.83 44.0188C12.948 41.393 11.8125 37.1495 11.2215 33.3253C11.1105 32.6218 11.0535 31.8733 11.004 31.2223C10.9275 30.101 10.9568 28.9843 10.9875 27.8C11.004 27.1295 10.929 26.6758 10.3125 26.3173C5.82077 23.708 4.65677 18.935 4.47452 15.3853C4.29527 11.6608 5.65652 8.21152 8.21102 5.92252C9.75077 4.54252 11.6393 3.62152 13.6725 3.24802C15.6465 2.88577 17.643 2.95927 19.4513 3.89677C22.3005 5.37427 25.7033 5.37502 28.5533 3.89677C29.6318 3.33727 30.7943 3.04027 31.9155 3.03802C33.4913 3.03802 35.0655 3.29152 36.531 3.88102C37.7295 4.36327 38.8343 5.06152 39.7958 5.92402C42.351 8.20702 43.71 11.6518 43.5225 15.3785C43.356 18.9515 42.1965 23.7545 37.6238 26.3683C37.287 26.561 37.0148 27.0298 37.0523 27.4415C37.38 31.5733 37.314 35.0353 35.9295 38.507C35.016 40.8073 33.6203 42.6148 31.6793 44.0075C33.8828 38.6353 33.7335 32.3825 32.2605 26.834C31.3515 23.411 32.5425 19.5178 33.7073 16.265C33.987 15.4843 33.8108 14.6218 33.2475 14.0113C32.6783 13.3978 31.8233 13.1525 31.02 13.3715L26.1615 14.6938C24.8933 15.0388 23.5508 15.047 22.2773 14.717L16.9553 13.3355C16.152 13.1263 15.3045 13.3783 14.7443 13.9918C14.1878 14.6015 14.0153 15.461 14.2935 16.2358C15.405 19.3325 16.605 22.7983 15.951 26.126C15.5123 28.3565 15.1088 30.5428 15.0173 32.825C14.9445 34.643 15.0188 36.4693 15.276 38.2708C15.4845 39.7288 15.8175 41.1853 16.2878 42.5818C16.2878 42.5818 16.6208 43.7608 16.83 44.0188Z" fill="white" stroke="#25B4F8" stroke-width="0.7"/>
</svg>
